%TF.GenerationSoftware,KiCad,Pcbnew,10.0.6*%
%TF.CreationDate,2026-09-19T12:23:03-05:00*%
%TF.ProjectId,OpenChordM1,4f70656e-4368-46f7-9264-4d312e6b6963,rev?*%
%TF.SameCoordinates,Original*%
%TF.FileFunction,Legend,Top*%
%TF.FilePolarity,Positive*%
%FSLAX46Y46*%
G04 Gerber Fmt 4.6, Leading zero omitted, Abs format (unit mm)*
G04 Created by KiCad (PCBNEW 10.0.6) date 2026-09-19 12:23:03*
%MOMM*%
%LPD*%
G01*
G04 APERTURE LIST*
%ADD10C,0.500000*%
%ADD11C,0.150000*%
%ADD12C,0.120000*%
G04 APERTURE END LIST*
D10*
X90300000Y-88250000D02*
X165350000Y-88250000D01*
X165350000Y-103800000D01*
X90300000Y-103800000D01*
X90300000Y-88250000D01*
X98330000Y-97330000D02*
X112310000Y-100000000D01*
X98340000Y-92000000D02*
X112310000Y-89340000D01*
X98340000Y-92000000D02*
X112310000Y-94670000D01*
X98340000Y-102670000D02*
X104201099Y-103800000D01*
X106730000Y-88260000D02*
X112310000Y-89340000D01*
X112310000Y-94670000D02*
X98330000Y-97330000D01*
X112310000Y-100000000D02*
X98340000Y-102670000D01*
X113340000Y-97320000D02*
X127320000Y-99990000D01*
X113350000Y-91990000D02*
X127320000Y-89330000D01*
X113350000Y-91990000D02*
X127320000Y-94660000D01*
X113350000Y-102660000D02*
X119211099Y-103790000D01*
X121740000Y-88250000D02*
X127320000Y-89330000D01*
X127320000Y-94660000D02*
X113340000Y-97320000D01*
X127320000Y-99990000D02*
X113350000Y-102660000D01*
X128340000Y-97335000D02*
X142320000Y-100005000D01*
X128350000Y-92005000D02*
X142320000Y-89345000D01*
X128350000Y-92005000D02*
X142320000Y-94675000D01*
X128350000Y-102675000D02*
X134211099Y-103805000D01*
X136740000Y-88265000D02*
X142320000Y-89345000D01*
X142320000Y-94675000D02*
X128340000Y-97335000D01*
X142320000Y-100005000D02*
X128350000Y-102675000D01*
X143330000Y-97330000D02*
X157310000Y-100000000D01*
X143340000Y-92000000D02*
X157310000Y-89340000D01*
X143340000Y-92000000D02*
X157310000Y-94670000D01*
X143340000Y-102670000D02*
X149201099Y-103800000D01*
X151730000Y-88260000D02*
X157310000Y-89340000D01*
X157310000Y-94670000D02*
X143330000Y-97330000D01*
X157310000Y-100000000D02*
X143340000Y-102670000D01*
X205665522Y-86100000D02*
G75*
G02*
X166834478Y-86100000I-19415522J0D01*
G01*
X166834478Y-86100000D02*
G75*
G02*
X205665522Y-86100000I19415522J0D01*
G01*
D11*
X203909819Y-59159285D02*
X202909819Y-59159285D01*
X202909819Y-59159285D02*
X202909819Y-58921190D01*
X202909819Y-58921190D02*
X202957438Y-58778333D01*
X202957438Y-58778333D02*
X203052676Y-58683095D01*
X203052676Y-58683095D02*
X203147914Y-58635476D01*
X203147914Y-58635476D02*
X203338390Y-58587857D01*
X203338390Y-58587857D02*
X203481247Y-58587857D01*
X203481247Y-58587857D02*
X203671723Y-58635476D01*
X203671723Y-58635476D02*
X203766961Y-58683095D01*
X203766961Y-58683095D02*
X203862200Y-58778333D01*
X203862200Y-58778333D02*
X203909819Y-58921190D01*
X203909819Y-58921190D02*
X203909819Y-59159285D01*
X203862200Y-58206904D02*
X203909819Y-58064047D01*
X203909819Y-58064047D02*
X203909819Y-57825952D01*
X203909819Y-57825952D02*
X203862200Y-57730714D01*
X203862200Y-57730714D02*
X203814580Y-57683095D01*
X203814580Y-57683095D02*
X203719342Y-57635476D01*
X203719342Y-57635476D02*
X203624104Y-57635476D01*
X203624104Y-57635476D02*
X203528866Y-57683095D01*
X203528866Y-57683095D02*
X203481247Y-57730714D01*
X203481247Y-57730714D02*
X203433628Y-57825952D01*
X203433628Y-57825952D02*
X203386009Y-58016428D01*
X203386009Y-58016428D02*
X203338390Y-58111666D01*
X203338390Y-58111666D02*
X203290771Y-58159285D01*
X203290771Y-58159285D02*
X203195533Y-58206904D01*
X203195533Y-58206904D02*
X203100295Y-58206904D01*
X203100295Y-58206904D02*
X203005057Y-58159285D01*
X203005057Y-58159285D02*
X202957438Y-58111666D01*
X202957438Y-58111666D02*
X202909819Y-58016428D01*
X202909819Y-58016428D02*
X202909819Y-57778333D01*
X202909819Y-57778333D02*
X202957438Y-57635476D01*
X203909819Y-56683095D02*
X203909819Y-57254523D01*
X203909819Y-56968809D02*
X202909819Y-56968809D01*
X202909819Y-56968809D02*
X203052676Y-57064047D01*
X203052676Y-57064047D02*
X203147914Y-57159285D01*
X203147914Y-57159285D02*
X203195533Y-57254523D01*
X171158450Y-54955713D02*
X171194164Y-54848571D01*
X171194164Y-54848571D02*
X171194164Y-54669999D01*
X171194164Y-54669999D02*
X171158450Y-54598571D01*
X171158450Y-54598571D02*
X171122735Y-54562856D01*
X171122735Y-54562856D02*
X171051307Y-54527142D01*
X171051307Y-54527142D02*
X170979878Y-54527142D01*
X170979878Y-54527142D02*
X170908450Y-54562856D01*
X170908450Y-54562856D02*
X170872735Y-54598571D01*
X170872735Y-54598571D02*
X170837021Y-54669999D01*
X170837021Y-54669999D02*
X170801307Y-54812856D01*
X170801307Y-54812856D02*
X170765592Y-54884285D01*
X170765592Y-54884285D02*
X170729878Y-54919999D01*
X170729878Y-54919999D02*
X170658450Y-54955713D01*
X170658450Y-54955713D02*
X170587021Y-54955713D01*
X170587021Y-54955713D02*
X170515592Y-54919999D01*
X170515592Y-54919999D02*
X170479878Y-54884285D01*
X170479878Y-54884285D02*
X170444164Y-54812856D01*
X170444164Y-54812856D02*
X170444164Y-54634285D01*
X170444164Y-54634285D02*
X170479878Y-54527142D01*
X171194164Y-54205713D02*
X170444164Y-54205713D01*
X170444164Y-54205713D02*
X170444164Y-54027142D01*
X170444164Y-54027142D02*
X170479878Y-53919999D01*
X170479878Y-53919999D02*
X170551307Y-53848570D01*
X170551307Y-53848570D02*
X170622735Y-53812856D01*
X170622735Y-53812856D02*
X170765592Y-53777142D01*
X170765592Y-53777142D02*
X170872735Y-53777142D01*
X170872735Y-53777142D02*
X171015592Y-53812856D01*
X171015592Y-53812856D02*
X171087021Y-53848570D01*
X171087021Y-53848570D02*
X171158450Y-53919999D01*
X171158450Y-53919999D02*
X171194164Y-54027142D01*
X171194164Y-54027142D02*
X171194164Y-54205713D01*
X170979878Y-53491427D02*
X170979878Y-53134285D01*
X171194164Y-53562856D02*
X170444164Y-53312856D01*
X170444164Y-53312856D02*
X171194164Y-53062856D01*
X171158450Y-57477856D02*
X171194164Y-57370714D01*
X171194164Y-57370714D02*
X171194164Y-57192142D01*
X171194164Y-57192142D02*
X171158450Y-57120714D01*
X171158450Y-57120714D02*
X171122735Y-57084999D01*
X171122735Y-57084999D02*
X171051307Y-57049285D01*
X171051307Y-57049285D02*
X170979878Y-57049285D01*
X170979878Y-57049285D02*
X170908450Y-57084999D01*
X170908450Y-57084999D02*
X170872735Y-57120714D01*
X170872735Y-57120714D02*
X170837021Y-57192142D01*
X170837021Y-57192142D02*
X170801307Y-57334999D01*
X170801307Y-57334999D02*
X170765592Y-57406428D01*
X170765592Y-57406428D02*
X170729878Y-57442142D01*
X170729878Y-57442142D02*
X170658450Y-57477856D01*
X170658450Y-57477856D02*
X170587021Y-57477856D01*
X170587021Y-57477856D02*
X170515592Y-57442142D01*
X170515592Y-57442142D02*
X170479878Y-57406428D01*
X170479878Y-57406428D02*
X170444164Y-57334999D01*
X170444164Y-57334999D02*
X170444164Y-57156428D01*
X170444164Y-57156428D02*
X170479878Y-57049285D01*
X171122735Y-56299285D02*
X171158450Y-56334999D01*
X171158450Y-56334999D02*
X171194164Y-56442142D01*
X171194164Y-56442142D02*
X171194164Y-56513570D01*
X171194164Y-56513570D02*
X171158450Y-56620713D01*
X171158450Y-56620713D02*
X171087021Y-56692142D01*
X171087021Y-56692142D02*
X171015592Y-56727856D01*
X171015592Y-56727856D02*
X170872735Y-56763570D01*
X170872735Y-56763570D02*
X170765592Y-56763570D01*
X170765592Y-56763570D02*
X170622735Y-56727856D01*
X170622735Y-56727856D02*
X170551307Y-56692142D01*
X170551307Y-56692142D02*
X170479878Y-56620713D01*
X170479878Y-56620713D02*
X170444164Y-56513570D01*
X170444164Y-56513570D02*
X170444164Y-56442142D01*
X170444164Y-56442142D02*
X170479878Y-56334999D01*
X170479878Y-56334999D02*
X170515592Y-56299285D01*
X171194164Y-55620713D02*
X171194164Y-55977856D01*
X171194164Y-55977856D02*
X170444164Y-55977856D01*
X170444164Y-60124999D02*
X171194164Y-59874999D01*
X171194164Y-59874999D02*
X170444164Y-59624999D01*
X171122735Y-58946428D02*
X171158450Y-58982142D01*
X171158450Y-58982142D02*
X171194164Y-59089285D01*
X171194164Y-59089285D02*
X171194164Y-59160713D01*
X171194164Y-59160713D02*
X171158450Y-59267856D01*
X171158450Y-59267856D02*
X171087021Y-59339285D01*
X171087021Y-59339285D02*
X171015592Y-59374999D01*
X171015592Y-59374999D02*
X170872735Y-59410713D01*
X170872735Y-59410713D02*
X170765592Y-59410713D01*
X170765592Y-59410713D02*
X170622735Y-59374999D01*
X170622735Y-59374999D02*
X170551307Y-59339285D01*
X170551307Y-59339285D02*
X170479878Y-59267856D01*
X170479878Y-59267856D02*
X170444164Y-59160713D01*
X170444164Y-59160713D02*
X170444164Y-59089285D01*
X170444164Y-59089285D02*
X170479878Y-58982142D01*
X170479878Y-58982142D02*
X170515592Y-58946428D01*
X171122735Y-58196428D02*
X171158450Y-58232142D01*
X171158450Y-58232142D02*
X171194164Y-58339285D01*
X171194164Y-58339285D02*
X171194164Y-58410713D01*
X171194164Y-58410713D02*
X171158450Y-58517856D01*
X171158450Y-58517856D02*
X171087021Y-58589285D01*
X171087021Y-58589285D02*
X171015592Y-58624999D01*
X171015592Y-58624999D02*
X170872735Y-58660713D01*
X170872735Y-58660713D02*
X170765592Y-58660713D01*
X170765592Y-58660713D02*
X170622735Y-58624999D01*
X170622735Y-58624999D02*
X170551307Y-58589285D01*
X170551307Y-58589285D02*
X170479878Y-58517856D01*
X170479878Y-58517856D02*
X170444164Y-58410713D01*
X170444164Y-58410713D02*
X170444164Y-58339285D01*
X170444164Y-58339285D02*
X170479878Y-58232142D01*
X170479878Y-58232142D02*
X170515592Y-58196428D01*
X170479878Y-62236428D02*
X170444164Y-62307857D01*
X170444164Y-62307857D02*
X170444164Y-62414999D01*
X170444164Y-62414999D02*
X170479878Y-62522142D01*
X170479878Y-62522142D02*
X170551307Y-62593571D01*
X170551307Y-62593571D02*
X170622735Y-62629285D01*
X170622735Y-62629285D02*
X170765592Y-62664999D01*
X170765592Y-62664999D02*
X170872735Y-62664999D01*
X170872735Y-62664999D02*
X171015592Y-62629285D01*
X171015592Y-62629285D02*
X171087021Y-62593571D01*
X171087021Y-62593571D02*
X171158450Y-62522142D01*
X171158450Y-62522142D02*
X171194164Y-62414999D01*
X171194164Y-62414999D02*
X171194164Y-62343571D01*
X171194164Y-62343571D02*
X171158450Y-62236428D01*
X171158450Y-62236428D02*
X171122735Y-62200714D01*
X171122735Y-62200714D02*
X170872735Y-62200714D01*
X170872735Y-62200714D02*
X170872735Y-62343571D01*
X171194164Y-61879285D02*
X170444164Y-61879285D01*
X170444164Y-61879285D02*
X171194164Y-61450714D01*
X171194164Y-61450714D02*
X170444164Y-61450714D01*
X171194164Y-61093571D02*
X170444164Y-61093571D01*
X170444164Y-61093571D02*
X170444164Y-60915000D01*
X170444164Y-60915000D02*
X170479878Y-60807857D01*
X170479878Y-60807857D02*
X170551307Y-60736428D01*
X170551307Y-60736428D02*
X170622735Y-60700714D01*
X170622735Y-60700714D02*
X170765592Y-60665000D01*
X170765592Y-60665000D02*
X170872735Y-60665000D01*
X170872735Y-60665000D02*
X171015592Y-60700714D01*
X171015592Y-60700714D02*
X171087021Y-60736428D01*
X171087021Y-60736428D02*
X171158450Y-60807857D01*
X171158450Y-60807857D02*
X171194164Y-60915000D01*
X171194164Y-60915000D02*
X171194164Y-61093571D01*
X180781428Y-56644819D02*
X180971904Y-56644819D01*
X180971904Y-56644819D02*
X181067142Y-56692438D01*
X181067142Y-56692438D02*
X181162380Y-56787676D01*
X181162380Y-56787676D02*
X181209999Y-56978152D01*
X181209999Y-56978152D02*
X181209999Y-57311485D01*
X181209999Y-57311485D02*
X181162380Y-57501961D01*
X181162380Y-57501961D02*
X181067142Y-57597200D01*
X181067142Y-57597200D02*
X180971904Y-57644819D01*
X180971904Y-57644819D02*
X180781428Y-57644819D01*
X180781428Y-57644819D02*
X180686190Y-57597200D01*
X180686190Y-57597200D02*
X180590952Y-57501961D01*
X180590952Y-57501961D02*
X180543333Y-57311485D01*
X180543333Y-57311485D02*
X180543333Y-56978152D01*
X180543333Y-56978152D02*
X180590952Y-56787676D01*
X180590952Y-56787676D02*
X180686190Y-56692438D01*
X180686190Y-56692438D02*
X180781428Y-56644819D01*
X182114761Y-57644819D02*
X181638571Y-57644819D01*
X181638571Y-57644819D02*
X181638571Y-56644819D01*
X182448095Y-57121009D02*
X182781428Y-57121009D01*
X182924285Y-57644819D02*
X182448095Y-57644819D01*
X182448095Y-57644819D02*
X182448095Y-56644819D01*
X182448095Y-56644819D02*
X182924285Y-56644819D01*
X183352857Y-57644819D02*
X183352857Y-56644819D01*
X183352857Y-56644819D02*
X183590952Y-56644819D01*
X183590952Y-56644819D02*
X183733809Y-56692438D01*
X183733809Y-56692438D02*
X183829047Y-56787676D01*
X183829047Y-56787676D02*
X183876666Y-56882914D01*
X183876666Y-56882914D02*
X183924285Y-57073390D01*
X183924285Y-57073390D02*
X183924285Y-57216247D01*
X183924285Y-57216247D02*
X183876666Y-57406723D01*
X183876666Y-57406723D02*
X183829047Y-57501961D01*
X183829047Y-57501961D02*
X183733809Y-57597200D01*
X183733809Y-57597200D02*
X183590952Y-57644819D01*
X183590952Y-57644819D02*
X183352857Y-57644819D01*
X185114762Y-57644819D02*
X185114762Y-56644819D01*
X185114762Y-56644819D02*
X185495714Y-56644819D01*
X185495714Y-56644819D02*
X185590952Y-56692438D01*
X185590952Y-56692438D02*
X185638571Y-56740057D01*
X185638571Y-56740057D02*
X185686190Y-56835295D01*
X185686190Y-56835295D02*
X185686190Y-56978152D01*
X185686190Y-56978152D02*
X185638571Y-57073390D01*
X185638571Y-57073390D02*
X185590952Y-57121009D01*
X185590952Y-57121009D02*
X185495714Y-57168628D01*
X185495714Y-57168628D02*
X185114762Y-57168628D01*
X186543333Y-57644819D02*
X186543333Y-57121009D01*
X186543333Y-57121009D02*
X186495714Y-57025771D01*
X186495714Y-57025771D02*
X186400476Y-56978152D01*
X186400476Y-56978152D02*
X186210000Y-56978152D01*
X186210000Y-56978152D02*
X186114762Y-57025771D01*
X186543333Y-57597200D02*
X186448095Y-57644819D01*
X186448095Y-57644819D02*
X186210000Y-57644819D01*
X186210000Y-57644819D02*
X186114762Y-57597200D01*
X186114762Y-57597200D02*
X186067143Y-57501961D01*
X186067143Y-57501961D02*
X186067143Y-57406723D01*
X186067143Y-57406723D02*
X186114762Y-57311485D01*
X186114762Y-57311485D02*
X186210000Y-57263866D01*
X186210000Y-57263866D02*
X186448095Y-57263866D01*
X186448095Y-57263866D02*
X186543333Y-57216247D01*
X187019524Y-56978152D02*
X187019524Y-57644819D01*
X187019524Y-57073390D02*
X187067143Y-57025771D01*
X187067143Y-57025771D02*
X187162381Y-56978152D01*
X187162381Y-56978152D02*
X187305238Y-56978152D01*
X187305238Y-56978152D02*
X187400476Y-57025771D01*
X187400476Y-57025771D02*
X187448095Y-57121009D01*
X187448095Y-57121009D02*
X187448095Y-57644819D01*
X188305238Y-57597200D02*
X188210000Y-57644819D01*
X188210000Y-57644819D02*
X188019524Y-57644819D01*
X188019524Y-57644819D02*
X187924286Y-57597200D01*
X187924286Y-57597200D02*
X187876667Y-57501961D01*
X187876667Y-57501961D02*
X187876667Y-57121009D01*
X187876667Y-57121009D02*
X187924286Y-57025771D01*
X187924286Y-57025771D02*
X188019524Y-56978152D01*
X188019524Y-56978152D02*
X188210000Y-56978152D01*
X188210000Y-56978152D02*
X188305238Y-57025771D01*
X188305238Y-57025771D02*
X188352857Y-57121009D01*
X188352857Y-57121009D02*
X188352857Y-57216247D01*
X188352857Y-57216247D02*
X187876667Y-57311485D01*
X188924286Y-57644819D02*
X188829048Y-57597200D01*
X188829048Y-57597200D02*
X188781429Y-57501961D01*
X188781429Y-57501961D02*
X188781429Y-56644819D01*
%TO.C,DS1*%
D12*
X167355000Y-51855000D02*
X167355000Y-63855000D01*
X167355000Y-63855000D02*
X205355000Y-63855000D01*
X172355000Y-63855000D02*
X172355000Y-51855000D01*
X201855000Y-63855000D02*
X201855000Y-51855000D01*
X205355000Y-51855000D02*
X167355000Y-51855000D01*
X205355000Y-63855000D02*
X205355000Y-51855000D01*
%TD*%
M02*
