%TF.GenerationSoftware,KiCad,Pcbnew,10.0.6*%
%TF.CreationDate,2026-09-19T12:23:03-05:00*%
%TF.ProjectId,OpenChordM1,4f70656e-4368-46f7-9264-4d312e6b6963,rev?*%
%TF.SameCoordinates,Original*%
%TF.FileFunction,Soldermask,Bot*%
%TF.FilePolarity,Negative*%
%FSLAX46Y46*%
G04 Gerber Fmt 4.6, Leading zero omitted, Abs format (unit mm)*
G04 Created by KiCad (PCBNEW 10.0.6) date 2026-09-19 12:23:03*
%MOMM*%
%LPD*%
G01*
G04 APERTURE LIST*
G04 Aperture macros list*
%AMRoundRect*
0 Rectangle with rounded corners*
0 $1 Rounding radius*
0 $2 $3 $4 $5 $6 $7 $8 $9 X,Y pos of 4 corners*
0 Add a 4 corners polygon primitive as box body*
4,1,4,$2,$3,$4,$5,$6,$7,$8,$9,$2,$3,0*
0 Add four circle primitives for the rounded corners*
1,1,$1+$1,$2,$3*
1,1,$1+$1,$4,$5*
1,1,$1+$1,$6,$7*
1,1,$1+$1,$8,$9*
0 Add four rect primitives between the rounded corners*
20,1,$1+$1,$2,$3,$4,$5,0*
20,1,$1+$1,$4,$5,$6,$7,0*
20,1,$1+$1,$6,$7,$8,$9,0*
20,1,$1+$1,$8,$9,$2,$3,0*%
%AMFreePoly0*
4,1,14,0.397610,0.186002,0.412255,0.150647,0.400881,0.118898,0.153459,-0.182117,0.119696,-0.200131,0.114833,-0.200368,-0.238887,-0.200368,-0.274242,-0.185723,-0.288887,-0.150368,-0.288887,0.150647,-0.274242,0.186002,-0.238887,0.200647,0.362255,0.200647,0.397610,0.186002,0.397610,0.186002,$1*%
%AMFreePoly1*
4,1,14,0.088593,0.185799,0.091864,0.182193,0.339286,-0.118822,0.350423,-0.155434,0.332409,-0.189197,0.300660,-0.200571,-0.300482,-0.200571,-0.335837,-0.185926,-0.350482,-0.150571,-0.350482,0.150444,-0.335837,0.185799,-0.300482,0.200444,0.053238,0.200444,0.088593,0.185799,0.088593,0.185799,$1*%
%AMFreePoly2*
4,1,14,0.185875,0.274013,0.200520,0.238658,0.200520,-0.362483,0.185875,-0.397838,0.150520,-0.412483,0.118771,-0.401109,-0.182244,-0.153688,-0.200258,-0.119925,-0.200495,-0.115062,-0.200495,0.238658,-0.185850,0.274013,-0.150495,0.288658,0.150520,0.288658,0.185875,0.274013,0.185875,0.274013,$1*%
%AMFreePoly3*
4,1,14,0.185875,0.274039,0.200520,0.238684,0.200520,-0.115037,0.185875,-0.150392,0.182269,-0.153663,-0.118746,-0.401084,-0.155358,-0.412221,-0.189121,-0.394207,-0.200495,-0.362458,-0.200495,0.238684,-0.185850,0.274039,-0.150495,0.288684,0.150520,0.288684,0.185875,0.274039,0.185875,0.274039,$1*%
%AMFreePoly4*
4,1,14,0.335837,0.185799,0.350482,0.150444,0.350482,-0.150571,0.335837,-0.185926,0.300482,-0.200571,-0.300660,-0.200571,-0.336015,-0.185926,-0.350660,-0.150571,-0.339286,-0.118822,-0.091864,0.182193,-0.058101,0.200207,-0.053238,0.200444,0.300482,0.200444,0.335837,0.185799,0.335837,0.185799,$1*%
%AMFreePoly5*
4,1,14,0.335812,0.185825,0.350457,0.150470,0.350457,-0.150546,0.335812,-0.185901,0.300457,-0.200546,-0.053264,-0.200546,-0.088619,-0.185901,-0.091890,-0.182295,-0.339311,0.118721,-0.350448,0.155333,-0.332434,0.189096,-0.300685,0.200470,0.300457,0.200470,0.335812,0.185825,0.335812,0.185825,$1*%
%AMFreePoly6*
4,1,14,-0.118746,0.401186,0.182269,0.153764,0.200283,0.120001,0.200520,0.115138,0.200520,-0.238582,0.185875,-0.273937,0.150520,-0.288582,-0.150495,-0.288582,-0.185850,-0.273937,-0.200495,-0.238582,-0.200495,0.362560,-0.185850,0.397915,-0.150495,0.412560,-0.118746,0.401186,-0.118746,0.401186,$1*%
%AMFreePoly7*
4,1,14,0.189172,0.394309,0.200546,0.362560,0.200546,-0.238582,0.185901,-0.273937,0.150546,-0.288582,-0.150470,-0.288582,-0.185825,-0.273937,-0.200470,-0.238582,-0.200470,0.115138,-0.185825,0.150493,-0.182219,0.153764,0.118797,0.401186,0.155409,0.412323,0.189172,0.394309,0.189172,0.394309,$1*%
%AMFreePoly8*
4,1,15,0.299949,0.699935,0.335296,0.685272,0.349923,0.649935,0.349923,-0.650088,0.335278,-0.685443,0.299923,-0.700088,-0.000102,-0.700088,-0.300076,-0.699935,-0.335423,-0.685272,-0.350050,-0.649935,-0.350050,0.650088,-0.335405,0.685443,-0.300050,0.700088,-0.000025,0.700088,0.299949,0.699935,0.299949,0.699935,$1*%
%AMFreePoly9*
4,1,13,0.300078,0.700037,0.335433,0.685391,0.350076,0.650037,0.350076,-0.649935,0.335431,-0.685290,0.300076,-0.699935,-0.299900,-0.699910,-0.335255,-0.685264,-0.349898,-0.649910,-0.349898,0.650062,-0.335253,0.685417,-0.299898,0.700062,0.300078,0.700037,0.300078,0.700037,$1*%
%AMFreePoly10*
4,1,13,0.335227,0.685239,0.349872,0.649884,0.349872,-0.650088,0.335227,-0.685443,0.299872,-0.700088,-0.300152,-0.700088,-0.335507,-0.685443,-0.350152,-0.650088,-0.350152,0.649884,-0.335507,0.685239,-0.300152,0.699884,0.299872,0.699884,0.335227,0.685239,0.335227,0.685239,$1*%
G04 Aperture macros list end*
%ADD10R,1.700000X1.700000*%
%ADD11O,1.700000X1.700000*%
%ADD12C,1.140000*%
%ADD13C,1.500000*%
%ADD14RoundRect,0.225000X-0.225000X-0.250000X0.225000X-0.250000X0.225000X0.250000X-0.225000X0.250000X0*%
%ADD15RoundRect,0.200000X-0.275000X0.200000X-0.275000X-0.200000X0.275000X-0.200000X0.275000X0.200000X0*%
%ADD16C,3.000000*%
%ADD17C,5.100000*%
%ADD18RoundRect,0.200000X-1.075000X-1.075000X1.075000X-1.075000X1.075000X1.075000X-1.075000X1.075000X0*%
%ADD19RoundRect,0.225000X0.225000X0.250000X-0.225000X0.250000X-0.225000X-0.250000X0.225000X-0.250000X0*%
%ADD20RoundRect,0.150000X-0.150000X0.512500X-0.150000X-0.512500X0.150000X-0.512500X0.150000X0.512500X0*%
%ADD21RoundRect,0.200000X0.200000X0.275000X-0.200000X0.275000X-0.200000X-0.275000X0.200000X-0.275000X0*%
%ADD22RoundRect,0.200000X0.275000X-0.200000X0.275000X0.200000X-0.275000X0.200000X-0.275000X-0.200000X0*%
%ADD23RoundRect,0.225000X0.250000X-0.225000X0.250000X0.225000X-0.250000X0.225000X-0.250000X-0.225000X0*%
%ADD24RoundRect,0.200000X-0.200000X-0.275000X0.200000X-0.275000X0.200000X0.275000X-0.200000X0.275000X0*%
%ADD25FreePoly0,0.000000*%
%ADD26R,0.600000X0.300000*%
%ADD27FreePoly1,0.000000*%
%ADD28FreePoly2,0.000000*%
%ADD29R,0.300000X0.600000*%
%ADD30FreePoly3,0.000000*%
%ADD31FreePoly4,0.000000*%
%ADD32FreePoly5,0.000000*%
%ADD33FreePoly6,0.000000*%
%ADD34FreePoly7,0.000000*%
%ADD35R,2.700000X2.700000*%
%ADD36C,1.200000*%
%ADD37O,2.300000X1.500000*%
%ADD38O,1.500000X2.300000*%
%ADD39C,0.600000*%
%ADD40O,1.200000X2.000000*%
%ADD41O,1.200000X1.800000*%
%ADD42FreePoly8,0.000000*%
%ADD43FreePoly9,0.000000*%
%ADD44R,0.300000X1.300000*%
%ADD45FreePoly10,0.000000*%
%ADD46RoundRect,0.150000X0.512500X0.150000X-0.512500X0.150000X-0.512500X-0.150000X0.512500X-0.150000X0*%
%ADD47RoundRect,0.250000X-0.475000X0.250000X-0.475000X-0.250000X0.475000X-0.250000X0.475000X0.250000X0*%
%ADD48O,0.364000X1.742000*%
%ADD49C,0.900000*%
%ADD50R,1.550000X1.000000*%
%ADD51RoundRect,0.250000X0.250000X0.475000X-0.250000X0.475000X-0.250000X-0.475000X0.250000X-0.475000X0*%
%ADD52RoundRect,0.250000X0.350000X-0.450000X0.350000X0.450000X-0.350000X0.450000X-0.350000X-0.450000X0*%
%ADD53RoundRect,0.112500X0.112500X-0.187500X0.112500X0.187500X-0.112500X0.187500X-0.112500X-0.187500X0*%
%ADD54RoundRect,0.050000X0.387500X0.050000X-0.387500X0.050000X-0.387500X-0.050000X0.387500X-0.050000X0*%
%ADD55RoundRect,0.050000X0.050000X0.387500X-0.050000X0.387500X-0.050000X-0.387500X0.050000X-0.387500X0*%
%ADD56R,3.200000X3.200000*%
%ADD57O,2.000000X0.650000*%
%ADD58RoundRect,0.162500X0.650000X0.162500X-0.650000X0.162500X-0.650000X-0.162500X0.650000X-0.162500X0*%
%ADD59R,1.000000X0.750000*%
G04 APERTURE END LIST*
D10*
%TO.C,DS1*%
X168855000Y-61665000D03*
D11*
X168855000Y-59125000D03*
X168855000Y-56585000D03*
X168855000Y-54045000D03*
%TD*%
D12*
%TO.C,U2*%
X89825000Y-87500000D03*
%TD*%
D13*
%TO.C,TP-SWDIO1*%
X107300000Y-70010000D03*
%TD*%
%TO.C,TP-SWCLK1*%
X109670000Y-68350000D03*
%TD*%
D14*
%TO.C,C8*%
X118100000Y-69050000D03*
X119650000Y-69050000D03*
%TD*%
D15*
%TO.C,R6*%
X123350000Y-76050000D03*
X123350000Y-77700000D03*
%TD*%
D16*
%TO.C,SW8*%
X158100000Y-82250000D03*
D17*
X155500000Y-76500000D03*
D16*
X151100000Y-81200000D03*
D18*
X147862500Y-81200000D03*
X161337500Y-82250000D03*
%TD*%
D15*
%TO.C,R27*%
X149390000Y-74470000D03*
X149390000Y-76120000D03*
%TD*%
D19*
%TO.C,C1*%
X125275000Y-52150000D03*
X123725000Y-52150000D03*
%TD*%
D20*
%TO.C,U8*%
X106550000Y-55615000D03*
X107500000Y-55615000D03*
X108450000Y-55615000D03*
X108450000Y-57890000D03*
X107500000Y-57890000D03*
X106550000Y-57890000D03*
%TD*%
D21*
%TO.C,R5*%
X129460000Y-52190000D03*
X127810000Y-52190000D03*
%TD*%
D15*
%TO.C,R28*%
X147720000Y-74490000D03*
X147720000Y-76140000D03*
%TD*%
D22*
%TO.C,R8*%
X166560000Y-51635000D03*
X166560000Y-49985000D03*
%TD*%
D16*
%TO.C,SW3*%
X121100000Y-63750000D03*
D17*
X118500000Y-58000000D03*
D16*
X114100000Y-62700000D03*
D18*
X110862500Y-62700000D03*
X124337500Y-63750000D03*
%TD*%
D15*
%TO.C,R29*%
X145990000Y-74495000D03*
X145990000Y-76145000D03*
%TD*%
D23*
%TO.C,C14*%
X166275000Y-60675000D03*
X166275000Y-59125000D03*
%TD*%
D24*
%TO.C,R15*%
X139575000Y-105650000D03*
X141225000Y-105650000D03*
%TD*%
D25*
%TO.C,U3*%
X145645000Y-72500000D03*
D26*
X145705000Y-72000000D03*
X145705000Y-71500000D03*
X145705000Y-71000000D03*
X145705000Y-70500000D03*
X145705000Y-70000000D03*
D27*
X145705000Y-69500000D03*
D28*
X146105000Y-69030000D03*
D29*
X146605000Y-69100000D03*
X147105000Y-69100000D03*
X147605000Y-69100000D03*
X148105000Y-69100000D03*
X148605000Y-69100000D03*
D30*
X149105000Y-69030000D03*
D31*
X149505000Y-69500000D03*
D26*
X149505000Y-70000000D03*
X149505000Y-70500000D03*
X149505000Y-71000000D03*
X149505000Y-71500000D03*
X149505000Y-72000000D03*
D32*
X149505000Y-72500000D03*
D33*
X149105000Y-72970000D03*
D29*
X148605000Y-72900000D03*
X148105000Y-72900000D03*
X147605000Y-72900000D03*
X147105000Y-72900000D03*
X146605000Y-72900000D03*
D34*
X146105000Y-72970000D03*
D35*
X147575000Y-71000000D03*
%TD*%
D15*
%TO.C,R20*%
X164720000Y-88535000D03*
X164720000Y-90185000D03*
%TD*%
D16*
%TO.C,SW6*%
X139600000Y-82250000D03*
D17*
X137000000Y-76500000D03*
D16*
X132600000Y-81200000D03*
D18*
X129362500Y-81200000D03*
X142837500Y-82250000D03*
%TD*%
D22*
%TO.C,R9*%
X168900000Y-51635000D03*
X168900000Y-49985000D03*
%TD*%
D23*
%TO.C,C3*%
X90250000Y-91635000D03*
X90250000Y-90085000D03*
%TD*%
D24*
%TO.C,R14*%
X124650000Y-106850000D03*
X126300000Y-106850000D03*
%TD*%
%TO.C,R21*%
X165330000Y-96960000D03*
X166980000Y-96960000D03*
%TD*%
%TO.C,R24*%
X152590000Y-71390000D03*
X154240000Y-71390000D03*
%TD*%
%TO.C,R23*%
X152580000Y-69840000D03*
X154230000Y-69840000D03*
%TD*%
D36*
%TO.C,J2*%
X196825000Y-49552500D03*
X196825000Y-47052500D03*
X191825000Y-54552500D03*
X186825000Y-49552500D03*
X186825000Y-47052500D03*
D37*
X191825000Y-49552500D03*
D38*
X196825000Y-54552500D03*
X186825000Y-54552500D03*
%TD*%
D15*
%TO.C,R18*%
X166250000Y-77540000D03*
X166250000Y-79190000D03*
%TD*%
D24*
%TO.C,R2*%
X103165000Y-54590000D03*
X104815000Y-54590000D03*
%TD*%
%TO.C,R17*%
X167315000Y-72560000D03*
X168965000Y-72560000D03*
%TD*%
D21*
%TO.C,R1*%
X111785000Y-54560000D03*
X110135000Y-54560000D03*
%TD*%
D16*
%TO.C,SW5*%
X139600000Y-63750000D03*
D17*
X137000000Y-58000000D03*
D16*
X132600000Y-62700000D03*
D18*
X129362500Y-62700000D03*
X142837500Y-63750000D03*
%TD*%
D39*
%TO.C,J1*%
X104480000Y-51212456D03*
X110280000Y-51212456D03*
D40*
X111710000Y-51712456D03*
D41*
X111710000Y-47532456D03*
X103050000Y-47532456D03*
D40*
X103050000Y-51712456D03*
D42*
X104180000Y-52472456D03*
D43*
X104980000Y-52472456D03*
D44*
X106130000Y-52472456D03*
X107130000Y-52472456D03*
X107630000Y-52472456D03*
X108630000Y-52472456D03*
D45*
X110580000Y-52472456D03*
X109780000Y-52472456D03*
D44*
X109130000Y-52472456D03*
X108130000Y-52472456D03*
X106630000Y-52472456D03*
X105630000Y-52472456D03*
%TD*%
D14*
%TO.C,C2*%
X141300000Y-70280000D03*
X142850000Y-70280000D03*
%TD*%
D24*
%TO.C,R22*%
X170970000Y-102990000D03*
X172620000Y-102990000D03*
%TD*%
D14*
%TO.C,C7*%
X141300000Y-68725000D03*
X142850000Y-68725000D03*
%TD*%
D46*
%TO.C,U7*%
X99837500Y-51637500D03*
X99837500Y-52587500D03*
X99837500Y-53537500D03*
X97562500Y-53537500D03*
X97562500Y-51637500D03*
%TD*%
D16*
%TO.C,SW1*%
X102600000Y-63750000D03*
D17*
X100000000Y-58000000D03*
D16*
X95600000Y-62700000D03*
D18*
X92362500Y-62700000D03*
X105837500Y-63750000D03*
%TD*%
D13*
%TO.C,TP-VBUS1*%
X92530000Y-57550000D03*
%TD*%
D14*
%TO.C,C5*%
X132170000Y-66980000D03*
X133720000Y-66980000D03*
%TD*%
D47*
%TO.C,C11*%
X95300000Y-51650000D03*
X95300000Y-53550000D03*
%TD*%
D21*
%TO.C,R10*%
X182050000Y-63342500D03*
X180400000Y-63342500D03*
%TD*%
D24*
%TO.C,R3*%
X106575000Y-59915000D03*
X108225000Y-59915000D03*
%TD*%
%TO.C,R25*%
X152590000Y-72950000D03*
X154240000Y-72950000D03*
%TD*%
D48*
%TO.C,U4*%
X96327500Y-99445000D03*
X95677500Y-99445000D03*
X95027500Y-99445000D03*
X94377500Y-99445000D03*
X93717500Y-99445000D03*
X93067500Y-99445000D03*
X92417500Y-99445000D03*
X91767500Y-99445000D03*
X91117500Y-99445000D03*
X90467500Y-99445000D03*
X90467500Y-93705000D03*
X91117500Y-93705000D03*
X91767500Y-93705000D03*
X92417500Y-93705000D03*
X93067500Y-93705000D03*
X93717500Y-93705000D03*
X94377500Y-93705000D03*
X95027500Y-93705000D03*
X95677500Y-93705000D03*
X96327500Y-93705000D03*
%TD*%
D49*
%TO.C,SW10*%
X158600000Y-46830000D03*
X158600000Y-49630000D03*
D50*
X161200000Y-49080000D03*
X161200000Y-47380000D03*
X156000000Y-49080000D03*
X156000000Y-47380000D03*
%TD*%
D16*
%TO.C,SW4*%
X121100000Y-82250000D03*
D17*
X118500000Y-76500000D03*
D16*
X114100000Y-81200000D03*
D18*
X110862500Y-81200000D03*
X124337500Y-82250000D03*
%TD*%
D14*
%TO.C,C9*%
X120575000Y-67425000D03*
X122125000Y-67425000D03*
%TD*%
%TO.C,C6*%
X189400000Y-61790000D03*
X190950000Y-61790000D03*
%TD*%
D24*
%TO.C,R13*%
X109600000Y-107875000D03*
X111250000Y-107875000D03*
%TD*%
D15*
%TO.C,R12*%
X195675000Y-58942500D03*
X195675000Y-60592500D03*
%TD*%
D51*
%TO.C,C10*%
X101200000Y-49750000D03*
X99300000Y-49750000D03*
%TD*%
D16*
%TO.C,SW2*%
X102600000Y-82250000D03*
D17*
X100000000Y-76500000D03*
D16*
X95600000Y-81200000D03*
D18*
X92362500Y-81200000D03*
X105837500Y-82250000D03*
%TD*%
D36*
%TO.C,J3*%
X183575000Y-49552500D03*
X183575000Y-47052500D03*
X178575000Y-54552500D03*
X173575000Y-49552500D03*
X173575000Y-47052500D03*
D37*
X178575000Y-49552500D03*
D38*
X183575000Y-54552500D03*
X173575000Y-54552500D03*
%TD*%
D24*
%TO.C,R11*%
X189350000Y-58990000D03*
X191000000Y-58990000D03*
%TD*%
%TO.C,R16*%
X173725000Y-65850000D03*
X175375000Y-65850000D03*
%TD*%
D52*
%TO.C,Y1*%
X110600000Y-77525000D03*
X110600000Y-75325000D03*
X112300000Y-75325000D03*
X112300000Y-77525000D03*
%TD*%
D49*
%TO.C,SW9*%
X143600000Y-46830000D03*
X143600000Y-49630000D03*
D50*
X146200000Y-49080000D03*
X146200000Y-47380000D03*
X141000000Y-49080000D03*
X141000000Y-47380000D03*
%TD*%
D15*
%TO.C,R19*%
X165410000Y-82980000D03*
X165410000Y-84630000D03*
%TD*%
D53*
%TO.C,D1*%
X175075000Y-61042500D03*
X175075000Y-58942500D03*
%TD*%
D54*
%TO.C,U1*%
X130787500Y-68187500D03*
X130787500Y-68587500D03*
X130787500Y-68987500D03*
X130787500Y-69387500D03*
X130787500Y-69787500D03*
X130787500Y-70187500D03*
X130787500Y-70587500D03*
X130787500Y-70987500D03*
X130787500Y-71387500D03*
X130787500Y-71787500D03*
X130787500Y-72187500D03*
X130787500Y-72587500D03*
X130787500Y-72987500D03*
X130787500Y-73387500D03*
D55*
X129950000Y-74225000D03*
X129550000Y-74225000D03*
X129150000Y-74225000D03*
X128750000Y-74225000D03*
X128350000Y-74225000D03*
X127950000Y-74225000D03*
X127550000Y-74225000D03*
X127150000Y-74225000D03*
X126750000Y-74225000D03*
X126350000Y-74225000D03*
X125950000Y-74225000D03*
X125550000Y-74225000D03*
X125150000Y-74225000D03*
X124750000Y-74225000D03*
D54*
X123912500Y-73387500D03*
X123912500Y-72987500D03*
X123912500Y-72587500D03*
X123912500Y-72187500D03*
X123912500Y-71787500D03*
X123912500Y-71387500D03*
X123912500Y-70987500D03*
X123912500Y-70587500D03*
X123912500Y-70187500D03*
X123912500Y-69787500D03*
X123912500Y-69387500D03*
X123912500Y-68987500D03*
X123912500Y-68587500D03*
X123912500Y-68187500D03*
D55*
X124750000Y-67350000D03*
X125150000Y-67350000D03*
X125550000Y-67350000D03*
X125950000Y-67350000D03*
X126350000Y-67350000D03*
X126750000Y-67350000D03*
X127150000Y-67350000D03*
X127550000Y-67350000D03*
X127950000Y-67350000D03*
X128350000Y-67350000D03*
X128750000Y-67350000D03*
X129150000Y-67350000D03*
X129550000Y-67350000D03*
X129950000Y-67350000D03*
D56*
X127350000Y-70787500D03*
%TD*%
D14*
%TO.C,C12*%
X127975000Y-76800000D03*
X129525000Y-76800000D03*
%TD*%
D23*
%TO.C,C13*%
X114725000Y-76025000D03*
X114725000Y-74475000D03*
%TD*%
D57*
%TO.C,U9*%
X180420000Y-61330000D03*
X180400000Y-58790000D03*
X186720000Y-58790000D03*
X186750000Y-60060000D03*
X186720000Y-61330000D03*
%TD*%
D49*
%TO.C,SW11*%
X128600000Y-46830000D03*
X128600000Y-49630000D03*
D50*
X131200000Y-49080000D03*
X131200000Y-47380000D03*
X126000000Y-49080000D03*
X126000000Y-47380000D03*
%TD*%
D13*
%TO.C,TP-GND1*%
X92530000Y-54000000D03*
%TD*%
D58*
%TO.C,U6*%
X130887500Y-54195000D03*
X130887500Y-55465000D03*
X130887500Y-56735000D03*
X130887500Y-58005000D03*
X123712500Y-58005000D03*
X123712500Y-56735000D03*
X123712500Y-55465000D03*
X123712500Y-54195000D03*
%TD*%
D24*
%TO.C,R4*%
X110250000Y-57865000D03*
X111900000Y-57865000D03*
%TD*%
D19*
%TO.C,C4*%
X117300000Y-67450000D03*
X115750000Y-67450000D03*
%TD*%
D59*
%TO.C,SW13*%
X121240000Y-48720000D03*
X115240000Y-48720000D03*
X121240000Y-52420000D03*
X115240000Y-52420000D03*
%TD*%
D15*
%TO.C,R7*%
X126200000Y-76800000D03*
X126200000Y-78450000D03*
%TD*%
%TO.C,R26*%
X151130000Y-74435000D03*
X151130000Y-76085000D03*
%TD*%
D16*
%TO.C,SW7*%
X158100000Y-63750000D03*
D17*
X155500000Y-58000000D03*
D16*
X151100000Y-62700000D03*
D18*
X147862500Y-62700000D03*
X161337500Y-63750000D03*
%TD*%
D21*
%TO.C,R30*%
X134500000Y-52225000D03*
X132850000Y-52225000D03*
%TD*%
M02*
