M48
; DRILL file KiCad 10.0.6 date 2026-09-19T12:23:04
; FORMAT={-:-/ absolute / metric / decimal}
; #@! TF.CreationDate,2026-09-19T12:23:04-05:00
; #@! TF.GenerationSoftware,Kicad,Pcbnew,10.0.6
; #@! TF.FileFunction,Plated,1,4,PTH
FMAT,2
METRIC
; #@! TA.AperFunction,Plated,PTH,ViaDrill
T1C0.300
; #@! TA.AperFunction,Plated,PTH,ComponentDrill
T2C0.300
; #@! TA.AperFunction,Plated,PTH,ViaDrill
T3C0.750
; #@! TA.AperFunction,Plated,PTH,ComponentDrill
T4C0.800
; #@! TA.AperFunction,Plated,PTH,ComponentDrill
T5C0.800
; #@! TA.AperFunction,Plated,PTH,ComponentDrill
T6C1.000
; #@! TA.AperFunction,Plated,PTH,ComponentDrill
T7C1.200
; #@! TA.AperFunction,Plated,PTH,ViaDrill
T8C2.400
%
G90
G05
T1
X89.925Y-95.375
X92.41Y-75.41
X96.5Y-50.1
X98.65Y-52.6
X104.31Y-58.97
X105.75Y-56.75
X105.8Y-51.115
X107.5Y-54.315
X107.56Y-78.72
X109.6Y-59.95
X111.02Y-70.45
X111.02Y-72.2
X112.825Y-107.875
X113.775Y-78.05
X113.85Y-58.2
X115.94Y-74.31
X116.775Y-68.7
X117.85Y-81.4
X118.8Y-67.45
X120.725Y-69.05
X121.875Y-77.375
X123.5Y-49.02
X124.725Y-77.725
X125.082Y-73.218
X125.15Y-76.2
X125.21Y-54.23
X125.387Y-68.362
X125.4Y-66.0
X125.515Y-55.465
X126.25Y-68.287
X126.35Y-65.35
X126.52Y-52.25
X126.665Y-56.735
X126.69Y-84.32
X126.7Y-75.4
X126.95Y-73.0
X127.15Y-65.85
X127.45Y-58.0
X127.54Y-49.74
X127.85Y-106.85
X127.95Y-65.4
X128.165Y-56.735
X128.6Y-68.7
X128.75Y-65.5
X128.84Y-75.45
X128.885Y-55.465
X129.45Y-54.2
X129.541Y-65.378
X130.1Y-66.15
X131.05Y-66.1
X131.4Y-74.1
X131.84Y-73.36
X132.311Y-72.074
X132.99Y-65.77
X133.01Y-69.19
X133.81Y-69.54
X133.9Y-64.76
X134.5Y-53.58
X134.769Y-69.637
X136.17Y-70.04
X137.1Y-53.02
X138.56Y-70.74
X140.13Y-70.31
X140.49Y-78.28
X140.9Y-50.53
X142.638Y-73.2
X142.8Y-105.65
X143.25Y-85.425
X143.425Y-72.6
X143.43Y-67.47
X144.2Y-66.23
X144.2Y-72.0
X144.225Y-86.575
X144.238Y-71.088
X144.514Y-70.337
X145.25Y-62.59
X145.98Y-77.59
X147.73Y-77.59
X149.4Y-77.59
X151.13Y-77.61
X155.55Y-69.84
X155.57Y-71.37
X155.57Y-72.95
X155.66Y-50.53
X159.08Y-51.57
X159.8Y-52.22
X159.92Y-86.33
X160.87Y-86.37
X161.23Y-79.28
X161.28Y-106.58
X161.48Y-85.82
X162.28Y-85.69
X163.9Y-54.8
X164.73Y-49.99
X165.06Y-56.59
X165.33Y-86.12
X165.76Y-63.19
X166.145Y-91.435
X166.22Y-80.64
X167.81Y-77.06
X168.285Y-76.015
X168.35Y-96.95
X170.14Y-72.76
X170.65Y-50.06
X174.13Y-102.96
X177.98Y-67.04
X185.09Y-60.07
X185.17Y-53.87
X188.25Y-61.64
X191.0Y-57.78
X197.5Y-60.69
X201.8Y-68.24
T2
X89.825Y-87.5
X169.75Y-79.646
X169.75Y-81.554
X169.75Y-85.146
X169.75Y-87.054
X169.75Y-90.646
X169.75Y-92.554
X175.25Y-74.146
X175.25Y-76.054
X175.25Y-79.646
X175.25Y-81.554
X175.25Y-85.146
X175.25Y-87.054
X175.25Y-90.646
X175.25Y-92.554
X175.25Y-96.146
X175.25Y-98.054
X180.75Y-74.146
X180.75Y-76.054
X180.75Y-79.646
X180.75Y-81.554
X180.75Y-85.146
X180.75Y-87.054
X180.75Y-90.646
X180.75Y-92.554
X180.75Y-96.146
X180.75Y-98.054
X186.25Y-74.146
X186.25Y-76.054
X186.25Y-79.646
X186.25Y-81.554
X186.25Y-85.146
X186.25Y-87.054
X186.25Y-90.646
X186.25Y-92.554
X186.25Y-96.146
X186.25Y-98.054
X191.75Y-74.146
X191.75Y-76.054
X191.75Y-79.646
X191.75Y-81.554
X191.75Y-85.146
X191.75Y-87.054
X191.75Y-90.646
X191.75Y-92.554
X191.75Y-96.146
X191.75Y-98.054
X197.25Y-74.146
X197.25Y-76.054
X197.25Y-79.646
X197.25Y-81.554
X197.25Y-85.146
X197.25Y-87.054
X197.25Y-90.646
X197.25Y-92.554
X197.25Y-96.146
X197.25Y-98.054
X202.75Y-79.646
X202.75Y-81.554
X202.75Y-85.146
X202.75Y-87.054
X202.75Y-90.646
X202.75Y-92.554
T3
X92.53Y-54.0
X92.53Y-57.55
X107.3Y-70.01
X109.67Y-68.35
T6
X168.855Y-54.045
X168.855Y-56.585
X168.855Y-59.125
X168.855Y-61.665
T7
X173.575Y-47.052
X173.575Y-49.552
X178.575Y-54.552
X183.575Y-47.052
X183.575Y-49.552
X186.825Y-47.052
X186.825Y-49.552
X191.825Y-54.552
X196.825Y-47.052
X196.825Y-49.552
T8
X90.9Y-49.1
X90.95Y-106.3
X204.1Y-106.3
X204.2Y-48.95
T4
X173.575Y-54.902G85X173.575Y-54.203
G05
X178.925Y-49.552G85X178.225Y-49.552
G05
X183.575Y-54.902G85X183.575Y-54.203
G05
X186.825Y-54.902G85X186.825Y-54.203
G05
X192.175Y-49.552G85X191.475Y-49.552
G05
X196.825Y-54.902G85X196.825Y-54.203
G05
T5
X103.05Y-47.332G85X103.05Y-47.732
G05
X103.05Y-51.362G85X103.05Y-52.062
G05
X111.71Y-47.332G85X111.71Y-47.732
G05
X111.71Y-51.362G85X111.71Y-52.062
G05
M30
